#!OML:ASF H:\Male1\Project 1\Capture day 1\Session 1\Male1.ASF
:FULLY-SPECIFIED
:DEGREES
388
root 17.6046 13.3914 -3.35347 319.883 78.6807 -56.152
lowerback 40.5624 0.375789 -5.58108
upperback 18.664 0.941087 -4.34112
thorax 1.39687 1.2681 -2.01973
lowerneck 2.25123 8.33692 10.9595
upperneck -12.1239 11.5953 -6.03882
head -3.00539 5.7662 -3.87386
rclavicle 7.31528e-014 4.81059e-014
rhumerus -25.5167 8.0317 -88.1624
rradius 57.9011
rwrist -31.7338
rhand -18.1295 5.2207
rfingers 7.12502
rthumb 8.14538 -24.6023
lclavicle 7.31528e-014 4.81059e-014
lhumerus 28.5967 1.33548 61.3722
lradius 29.0172
lwrist 10.6545
lhand -26.0147 13.8929
lfingers 7.12502
lthumb 0.531556 43.872
rfemur -61.1231 7.86956 36.1539
rtibia 65.6116
rfoot -21.0795 -18.1336
rtoes -24.1023
lfemur -65.3815 -3.79508 -7.24157
ltibia 75.4969
lfoot -23.3421 9.79275
ltoes -18.2229
389
root 17.6433 13.3439 -3.3529 320.402 78.6581 -56.1161
lowerback 40.8104 0.548652 -5.90162
upperback 18.7246 1.04595 -4.1592
thorax 1.40431 1.28417 -1.70354
lowerneck 2.11712 8.36026 10.758
upperneck -12.4571 11.6045 -6.12645
head -3.0879 5.7817 -3.87693
rclavicle -6.36111e-015 1.78906e-014
rhumerus -25.3525 8.09784 -87.8813
rradius 57.9881
rwrist -31.9288
rhand -18.2263 5.5614
rfingers 7.12502
rthumb 8.0519 -24.2652
lclavicle -6.36111e-015 1.78906e-014
lhumerus 29.6722 1.77225 61.362
lradius 28.6595
lwrist 9.99213
lhand -25.6843 13.8414
lfingers 7.12502
lthumb 0.850648 43.8195
rfemur -61.9849 8.19203 36.0892
rtibia 66.4886
rfoot -21.4507 -18.3401
rtoes -24.0233
lfemur -66.1915 -3.55135 -7.26915
ltibia 76.2856
lfoot -23.7556 9.54293
ltoes -17.6091
390
root 17.6811 13.3001 -3.35264 321.019 78.6871 -55.9585
lowerback 41.076 0.689297 -6.12597
upperback 18.7792 1.14192 -4.05617
thorax 1.39768 1.31067 -1.51808
lowerneck 1.9726 8.34878 10.6483
upperneck -12.7614 11.5748 -6.18736
head -3.16034 5.77384 -3.88422
rclavicle 8.26944e-014 1.11319e-014
rhumerus -25.2068 8.00355 -87.6998
rradius 58.0809
rwrist -32.0831
rhand -18.3257 5.83038
rfingers 7.12502
rthumb 7.956 -23.9999
lclavicle 8.26944e-014 1.11319e-014
lhumerus 30.7932 2.17122 61.3699
lradius 28.2682
lwrist 9.23389
lhand -25.3123 13.6925
lfingers 7.12502
lthumb 1.2099 43.6688
rfemur -62.8139 8.46322 35.9683
rtibia 67.3296
rfoot -21.8235 -18.5143
rtoes -24.0753
lfemur -66.9446 -3.35769 -7.35791
ltibia 77.0076
lfoot -24.1525 9.34995
ltoes -17.1579
391
root 17.7183 13.2596 -3.35287 321.683 78.7208 -55.7417
lowerback 41.3401 0.793647 -6.21497
upperback 18.8186 1.23523 -4.03318
thorax 1.37157 1.35258 -1.48577
lowerneck 1.83943 8.30062 10.6349
upperneck -13.0372 11.5053 -6.22363
head -3.22602 5.7415 -3.8981
rclavicle 5.08889e-014 1.66979e-014
rhumerus -25.1015 7.75316 -87.6234
rradius 58.1789
rwrist -32.2099
rhand -18.3557 5.95062
rfingers 7.12502
rthumb 7.92703 -23.8807
lclavicle 5.08889e-014 1.66979e-014
lhumerus 31.9572 2.56767 61.4511
lradius 27.8306
lwrist 8.36747
lhand -24.9413 13.4156
lfingers 7.12502
lthumb 1.5683 43.3895
rfemur -63.6098 8.70312 35.8379
rtibia 68.1221
rfoot -22.1928 -18.651
rtoes -24.2347
lfemur -67.6619 -3.18281 -7.46394
ltibia 77.6732
lfoot -24.5021 9.24987
ltoes -17.0303
392
root 17.7543 13.2223 -3.35295 322.311 78.7511 -55.5394
lowerback 41.6267 0.863763 -6.17741
upperback 18.8411 1.32501 -4.07903
thorax 1.31814 1.4084 -1.59054
lowerneck 1.71044 8.22246 10.725
upperneck -13.2795 11.4027 -6.24926
head -3.28046 5.68803 -3.92322
rclavicle -2.54444e-014 -4.13472e-014
rhumerus -25.0389 7.37929 -87.6471
rradius 58.2774
rwrist -32.3308
rhand -18.343 6.04987
rfingers 7.12502
rthumb 7.93929 -23.781
lclavicle -2.54444e-014 -4.13472e-014
lhumerus 33.1786 2.97429 61.6258
lradius 27.3238
lwrist 7.41039
lhand -24.6385 13.0091
lfingers 7.12502
lthumb 1.86073 42.9807
rfemur -64.3517 8.91028 35.7216
rtibia 68.8535
rfoot -22.5604 -18.7525
rtoes -24.382
lfemur -68.3411 -3.01533 -7.57077
ltibia 78.2903
lfoot -24.781 9.24143
ltoes -17.289
393
root 17.7893 13.188 -3.35287 322.867 78.7533 -55.3857
lowerback 41.8989 0.9431 -6.17785
upperback 18.8549 1.41032 -4.0825
thorax 1.26011 1.45438 -1.62989
lowerneck 1.62835 8.16261 10.7726
upperneck -13.5015 11.3209 -6.30384
head -3.33482 5.64779 -3.95207
rclavicle 1.59028e-014 3.73715e-014
rhumerus -24.9922 7.138 -87.6421
rradius 58.3589
rwrist -32.4904
rhand -18.2788 6.13468
rfingers 7.12502
rthumb 8.00129 -23.6939
lclavicle 1.59028e-014 3.73715e-014
lhumerus 34.3486 3.59732 62.0657
lradius 26.7438
lwrist 6.28756
lhand -24.4647 12.468
lfingers 7.12502
lthumb 2.02856 42.4381
rfemur -65.0259 9.09336 35.6463
rtibia 69.5126
rfoot -22.9027 -18.8292
rtoes -24.5294
lfemur -68.9789 -2.83472 -7.65536
ltibia 78.8692
lfoot -24.9922 9.31339
ltoes -17.9355
394
root 17.8234 13.1564 -3.35281 323.267 78.719 -55.363
lowerback 42.1596 1.01804 -6.16306
upperback 18.8671 1.4948 -4.06807
thorax 1.2032 1.49864 -1.65769
lowerneck 1.56923 8.11368 10.8074
upperneck -13.7057 11.2539 -6.36019
head -3.38692 5.61559 -3.97995
rclavicle 2.22639e-014 -1.45113e-014
rhumerus -24.9502 6.97117 -87.6395
rradius 58.4168
rwrist -32.6709
rhand -18.1727 6.23756
rfingers 7.12502
rthumb 8.10364 -23.5871
lclavicle 2.22639e-014 -1.45113e-014
lhumerus 35.4918 4.33003 62.6799
lradius 26.1176
lwrist 5.05583
lhand -24.4003 11.8847
lfingers 7.12502
lthumb 2.09077 41.8542
rfemur -65.6267 9.24148 35.6378
rtibia 70.0958
rfoot -23.1877 -18.898
rtoes -24.7592
lfemur -69.5714 -2.63612 -7.69787
ltibia 79.4154
lfoot -25.1613 9.42307
ltoes -18.8031
395
root 17.8562 13.127 -3.35307 323.431 78.6607 -55.5407
lowerback 42.4344 1.07796 -6.20664
upperback 18.8699 1.53747 -3.99716
thorax 1.13282 1.51239 -1.58313
lowerneck 1.56285 8.11468 10.728
upperneck -13.9027 11.2498 -6.4257
head -3.4453 5.62021 -3.99575
rclavicle 3.81667e-014 1.68967e-014
rhumerus -24.9036 7.04805 -87.5951
rradius 58.4534
rwrist -32.8811
rhand -18.0481 6.39699
rfingers 7.12502
rthumb 8.22391 -23.423
lclavicle 3.81667e-014 1.68967e-014
lhumerus 36.514 5.23522 63.4313
lradius 25.4849
lwrist 3.75751
lhand -24.3817 11.3596
lfingers 7.12502
lthumb 2.10875 41.3289
rfemur -66.1485 9.33042 35.7027
rtibia 70.61
rfoot -23.4053 -18.9704
rtoes -25.087
lfemur -70.1046 -2.4449 -7.69199
ltibia 79.9284
lfoot -25.3327 9.4927
ltoes -19.4989
396
root 17.8883 13.0996 -3.35376 323.436 78.5665 -55.8544
lowerback 42.679 1.12028 -6.24681
upperback 18.8788 1.56193 -3.91707
thorax 1.07746 1.51549 -1.4935
lowerneck 1.58299 8.14859 10.6319
upperneck -14.085 11.291 -6.49058
head -3.5007 5.64875 -4.00961
rclavicle 2.70347e-014 6.10269e-014
rhumerus -24.8504 7.2363 -87.5648
rradius 58.4778
rwrist -33.0807
rhand -17.9212 6.61998
rfingers 7.12502
rthumb 8.34636 -23.1951
lclavicle 2.70347e-014 6.10269e-014
lhumerus 37.4471 6.11723 64.1407
lradius 24.8952
lwrist 2.5251
lhand -24.356 10.9364
lfingers 7.12502
lthumb 2.13358 40.9055
rfemur -66.6064 9.38452 35.8361
rtibia 71.0675
rfoot -23.5713 -19.0396
rtoes -25.4616
lfemur -70.5854 -2.25113 -7.63306
ltibia 80.4139
lfoot -25.5543 9.47979
ltoes -19.8083
397
root 17.92 13.0735 -3.35513 323.416 78.4581 -56.1755
lowerback 42.8905 1.12791 -6.27955
upperback 18.884 1.54672 -3.86599
thorax 1.02747 1.50103 -1.42412
lowerneck 1.64593 8.21706 10.5398
upperneck -14.2548 11.3851 -6.53943
head -3.55598 5.70326 -4.02115
rclavicle 1.90833e-014 5.38706e-014
rhumerus -24.805 7.50133 -87.5915
rradius 58.493
rwrist -33.2378
rhand -17.8088 6.88163
rfingers 7.12502
rthumb 8.45489 -22.9291
lclavicle 1.90833e-014 5.38706e-014
lhumerus 38.2393 6.88017 64.6516
lradius 24.3866
lwrist 1.47649
lhand -24.3154 10.6024
lfingers 7.12502
lthumb 2.17279 40.5711
rfemur -67.026 9.41834 35.99
rtibia 71.4862
rfoot -23.7194 -19.0864
rtoes -25.7826
lfemur -71.0264 -2.07611 -7.55417
ltibia 80.8767
lfoot -25.8474 9.39948
ltoes -19.7172
398
root 17.9512 13.0473 -3.35688 323.474 78.3512 -56.3947
lowerback 43.0902 1.11464 -6.31812
upperback 18.884 1.50286 -3.84312
thorax 0.976091 1.4742 -1.37172
lowerneck 1.74979 8.30554 10.4553
upperneck -14.4342 11.5099 -6.59372
head -3.61758 5.77326 -4.03821
rclavicle -5.08889e-014 -2.5842e-015
rhumerus -24.7709 7.7921 -87.6606
rradius 58.5062
rwrist -33.3332
rhand -17.7283 7.16736
rfingers 7.12502
rthumb 8.53253 -22.6402
lclavicle -5.08889e-014 -2.5842e-015
lhumerus 38.8803 7.46755 64.9276
lradius 23.9791
lwrist 0.664559
lhand -24.2633 10.3337
lfingers 7.12502
lthumb 2.22307 40.3019
rfemur -67.4197 9.46494 36.1229
rtibia 71.8842
rfoot -23.8727 -19.1202
rtoes -25.9583
lfemur -71.4319 -1.92887 -7.48203
ltibia 81.3268
lfoot -26.1978 9.27918
ltoes -19.2645
399
root 17.9819 13.0225 -3.35898 323.652 78.2181 -56.4991
lowerback 43.2373 1.09021 -6.3396
upperback 18.8826 1.45176 -3.83967
thorax 0.936941 1.44513 -1.34441
lowerneck 1.87513 8.40223 10.3612
upperneck -14.6284 11.6449 -6.66305
head -3.68586 5.84967 -4.06037
rclavicle 1.74931e-014 -6.32135e-014
rhumerus -24.748 8.07821 -87.7441
rradius 58.5232
rwrist -33.3711
rhand -17.6527 7.3574
rfingers 7.12502
rthumb 8.60552 -22.4472
lclavicle 1.74931e-014 -6.32135e-014
lhumerus 39.3791 7.87766 65.0036
lradius 23.6767
lwrist 0.0944741
lhand -24.1995 10.1179
lfingers 7.12502
lthumb 2.28466 40.0854
rfemur -67.8024 9.5588 36.2459
rtibia 72.2521
rfoot -24.0316 -19.14
rtoes -25.9598
lfemur -71.8276 -1.78159 -7.39831
ltibia 81.7611
lfoot -26.5618 9.17491
ltoes -18.6101
400
root 18.0113 13.0002 -3.36108 323.897 78.077 -56.5346
lowerback 43.3432 1.08885 -6.36972
upperback 18.8874 1.42832 -3.80216
thorax 0.915163 1.42521 -1.2846
lowerneck 1.97618 8.48716 10.2418
upperneck -14.8153 11.7537 -6.76672
head -3.74893 5.91587 -4.08743
rclavicle 1.59028e-014 -3.97569e-016
rhumerus -24.729 8.33191 -87.7664
rradius 58.5496
rwrist -33.386
rhand -17.6155 7.5087
rfingers 7.12502
rthumb 8.64137 -22.2944
lclavicle 1.59028e-014 -3.97569e-016
lhumerus 39.7821 8.13983 65.019
lradius 23.4563
lwrist -0.28644
lhand -24.1468 9.94296
lfingers 7.12502
lthumb 2.33557 39.9099
rfemur -68.1656 9.6961 36.3457
rtibia 72.5845
rfoot -24.2254 -19.1312
rtoes -25.6818
lfemur -72.2105 -1.64598 -7.31052
ltibia 82.1668
lfoot -26.8837 9.13613
ltoes -17.9659
401
root 18.0393 12.9817 -3.36315 324.228 77.9436 -56.4736
lowerback 43.419 1.10489 -6.407
upperback 18.9051 1.4279 -3.74043
thorax 0.915453 1.41377 -1.20216
lowerneck 2.0325 8.55487 10.0908
upperneck -14.9907 11.8292 -6.88716
head -3.80442 5.96784 -4.11187
rclavicle -3.18055e-015 -3.79679e-014
rhumerus -24.7009 8.54413 -87.7336
rradius 58.5732
rwrist -33.4013
rhand -17.6094 7.64385
rfingers 7.12502
rthumb 8.64726 -22.1591
lclavicle -3.18055e-015 -3.79679e-014
lhumerus 40.1309 8.32509 65.0525
lradius 23.294
lwrist -0.560806
lhand -24.1265 9.78832
lfingers 7.12502
lthumb 2.35516 39.7551
rfemur -68.4972 9.86778 36.3988
rtibia 72.872
rfoot -24.4751 -19.0639
rtoes -25.0431
lfemur -72.559 -1.5343 -7.2359
ltibia 82.5212
lfoot -27.1354 9.18428
ltoes -17.4221
